<svg xmlns="http://www.w3.org/2000/svg" xmlns:xlink="http://www.w3.org/1999/xlink" width="703" height="457" viewBox="0 0 703 457">
    <defs>
        <path id="7go13u7gna" d="M0 0L703 0 703 457 0 457z"/>
    </defs>
    <g fill="none" fill-rule="evenodd">
        <g>
            <g transform="translate(-648 -96) translate(648 96)">
                <mask id="1509g9qoyb" fill="#fff">
                    <use xlink:href="#7go13u7gna"/>
                </mask>
                <circle cx="412.5" cy="451.167" r="270" fill="#F9AE1B" mask="url(#1509g9qoyb)"/>
                <path fill="#FFF" fill-rule="nonzero" d="M536.272 272.784V264H502v8.784h34.272zm0 17.856v-8.784H502v8.784h34.272z" mask="url(#1509g9qoyb)" transform="rotate(24 519.136 277.32)"/>
                <text fill="#FFF" font-family="Montserrat-Bold, Montserrat" font-size="72" font-weight="bold" mask="url(#1509g9qoyb)" opacity=".801">
                    <tspan x="357.5" y="360.5">+</tspan>
                </text>
                <circle cx="395.833" cy="487.833" r="306.667" stroke="#3FA9F5" stroke-width="2" mask="url(#1509g9qoyb)"/>
                <g mask="url(#1509g9qoyb)">
                    <g>
                        <path fill="#2672B5" fill-rule="nonzero" d="M35.675 49.725H287.259V83.334H35.675z" transform="matrix(-1 0 0 1 634.667 373.667)"/>
                        <g>
                            <path fill="#FE5244" fill-rule="nonzero" d="M241.391 13.223c3.03 2.824 4.89 7.92 4.89 12.19 0 8.54-7.438 17.287-16.667 17.287H.138c0 3.994 3.237 7.231 7.231 7.231h276.929c7.438 0 14.118-2.755 19.008-7.3 4.89-4.477 7.851-10.744 7.851-17.631 0-13.774-12.052-24.862-26.86-24.862H7.37C3.375.138.138 3.375.138 7.369v1.309h229.476c4.615.069 8.747 1.79 11.777 4.545z" transform="matrix(-1 0 0 1 634.667 373.667)"/>
                            <path fill="#FE5244" fill-rule="nonzero" d="M16.736 8.747V42.08H.206v2.755h230.235c2.548 0 5.027-.482 7.231-1.378 2.48-.964 4.683-2.479 6.474-4.27 3.512-3.512 5.716-8.402 5.716-13.774 0-10.744-8.746-19.421-19.421-19.421H.207v2.755h16.529z" transform="matrix(-1 0 0 1 634.667 373.667)"/>
                            <path fill="#FFF" fill-rule="nonzero" d="M10.33 8.747V42.08h219.284c9.229 0 16.667-7.438 16.667-16.667 0-4.614-1.86-8.746-4.89-11.777-3.03-3.03-7.162-4.89-11.777-4.89H10.331z" transform="matrix(-1 0 0 1 634.667 373.667)"/>
                            <path stroke="#FE5244" stroke-width="5" d="M10.331 8.747L10.331 42.08" transform="matrix(-1 0 0 1 634.667 373.667)"/>
                            <path fill="#FFCF2D" fill-rule="nonzero" d="M198.967 32.37v27.823h19.215V35.95c0-5.785 4.683-10.468 10.468-10.468h8.54v-3.581h-27.824c-5.647 0-10.4 4.683-10.4 10.468z" transform="matrix(-1 0 0 1 634.667 373.667)"/>
                        </g>
                    </g>
                </g>
                <g mask="url(#1509g9qoyb)">
                    <g fill-rule="nonzero">
                        <path fill="#FFF" d="M74.667 75.667L62.6 160.889c-.712 5.058-5.028 8.778-10.14 8.778H28.873c-5.111 0-9.427-3.762-10.139-8.778L6.667 75.667c0 7.648 15.209 13.834 33.979 13.834 18.812 0 34.02-6.227 34.02-13.834z" transform="translate(117 286.333)"/>
                        <path fill="#66B0F0" d="M73.183 75.74c.217-1.535 2.484-1.376 2.484.174 0 .57-.07 1.136-.21 1.694l-.038.146-11.743 83.108c-.785 5.584-5.503 9.721-11.13 9.803l-.171.002H28.958c-5.628 0-10.408-4.106-11.275-9.636l-.025-.168L5.915 77.768c-.165-.61-.248-1.23-.248-1.854 0-1.523 2.188-1.703 2.47-.253l.013.08.212 1.507.025.083c1.931 6.057 15.477 10.998 31.764 11.096l.495.002c16.345 0 30.069-4.9 32.231-10.901l.062-.183.033-.111.211-1.494zm-.959 6.785l-.18.16c-5.756 4.989-17.75 8.238-31.398 8.238-13.51 0-25.38-3.172-31.193-8.088l-.175-.15-.168-.148 11.018 77.976c.608 4.286 4.22 7.51 8.53 7.654l.15.004.15.001h23.417c4.41 0 8.126-3.177 8.808-7.51l.022-.148 11.02-77.99z" transform="translate(117 286.333)"/>
                        <path fill="#66B0F0" d="M66.667 84.667l-10.683 75.171c-.79 5.622-5.653 9.829-11.306 9.829h-8.023c-5.653 0-10.516-4.207-11.306-9.829L14.667 84.875c.831.375 1.745.708 2.66 1.041l10.475 73.589c.582 4.04 3.824 7.163 7.814 7.621.333.042.665.084 1.04.084h8.022c.499 0 .997-.042 1.455-.125 3.782-.625 6.817-3.665 7.357-7.58l10.475-73.756c.997-.333 1.87-.708 2.702-1.082z" transform="translate(117 286.333)"/>
                        <path fill="#66B0F0" d="M55.667 88.667l-9.404 78.84-.123 1.08c-.082.623-.616 1.08-1.232 1.08h-.164c-.698-.083-1.15-.706-1.068-1.37l.082-.665 9.363-78.509c.903-.166 1.724-.332 2.546-.456zM36.59 169.667h-.164c-.616 0-1.15-.458-1.232-1.082l-.123-1.04-9.404-78.878c.821.166 1.683.29 2.546.416l9.363 78.545.082.666c.082.665-.41 1.29-1.068 1.373z" transform="translate(117 286.333)"/>
                        <g fill="#66B0F0">
                            <path d="M70.706 13.877c0 3.51-3.319 6.687-8.78 9.153-.84.376-1.765.752-2.69 1.087-2.52.878-5.335 1.672-8.444 2.257-.84.167-1.722.292-2.604.46-3.655.543-7.647.877-11.806.92H34.03c-3.697-.043-7.226-.335-10.503-.795-.883-.125-1.723-.25-2.605-.418-3.235-.585-6.218-1.337-8.865-2.257-.924-.334-1.848-.669-2.688-1.045C3.613 20.773.126 17.513.126 13.92c0-.293.042-.586.084-.878C1.386 5.81 16.68.125 35.416.125c18.737 0 34.072 5.727 35.206 12.916.042.25.084.543.084.836z" transform="translate(117 286.333) translate(4.667 61.667)"/>
                            <path d="M36.886 105.537c0 .084 0 .21-.042.293-.126.543-.63.961-1.218.961s-1.092-.418-1.218-.961c-.042-.084-.042-.168-.042-.251l-.42-77.408c0-.167.042-.292.084-.46h2.352c.042.126.084.251.084.418l.42 77.408z" transform="translate(117 286.333) translate(4.667 61.667)"/>
                        </g>
                        <g>
                            <path fill="#FFCF2D" d="M39.916 85.668C32.42 85.46 25.558 84.338 20 82.552L.126.332h19.158l20.632 85.336z" transform="translate(117 286.333) translate(.667 .667)"/>
                            <g fill="#FFF">
                                <path d="M9.137 2.41H1.305C.715 2.41.253 1.953.253 1.37.253.789.716.332 1.305.332h7.327l.505 2.078zM11.242 11.134H3.411c-.59 0-1.053-.457-1.053-1.038 0-.582.463-1.039 1.053-1.039h7.326l.505 2.077zM13.347 19.859H5.516c-.59 0-1.053-.457-1.053-1.039 0-.581.463-1.038 1.053-1.038h7.326l.505 2.077zM15.495 28.584H7.663c-.59 0-1.052-.457-1.052-1.04 0-.58.463-1.038 1.052-1.038h7.326l.506 2.078zM17.6 37.308H9.768c-.59 0-1.052-.457-1.052-1.038 0-.582.463-1.04 1.052-1.04h7.327l.505 2.078zM19.705 46.033h-7.452c-.59 0-1.053-.457-1.053-1.039 0-.581.463-1.038 1.053-1.038H19.2l.505 2.077zM21.81 54.757h-7.873c-.59 0-1.053-.457-1.053-1.038 0-.582.463-1.039 1.053-1.039h7.368l.506 2.077zM23.916 63.482h-7.874c-.59 0-1.053-.457-1.053-1.039 0-.581.464-1.038 1.053-1.038h7.369l.505 2.077zM26.021 72.165c-.084.042-.168.042-.295.042h-8c-.59 0-1.052-.457-1.052-1.039 0-.582.463-1.039 1.052-1.039h7.79l.505 2.036z" transform="translate(117 286.333) translate(.667 .667) translate(12.632 8.31)"/>
                            </g>
                        </g>
                        <g>
                            <path fill="#FE5244" d="M98.662 28.846s-.042.042 0 0l-1.754 6.378c-.042.167-.167.25-.292.208L6.43 8.545c-.125-.041-.167-.208-.125-.333l1.712-6.336c0-.084.083-.125.125-.167.042-.042.125-.042.167-.042l90.186 26.887c.041 0 .083.084.125.125.042.042.042.125.042.167z" transform="translate(117 286.333) rotate(-16 616.744 -123.46)"/>
                            <path fill="#FFCF2D" d="M9.353 2.043L7.515 8.837c-.125.459-.5.75-.876.667L4.593 8.88c-.334-.083-.543-.584-.418-1.042l1.837-6.795c.126-.458.501-.75.877-.667L8.935 1c.334.084.543.542.418 1.043z" transform="translate(117 286.333) rotate(-16 616.744 -123.46)"/>
                            <path fill="#FE5244" d="M1.044 1.542L.209 4.71c-.25.876.292 1.793 1.21 2.085l2.882.833 1.711-6.377-2.88-.834c-.92-.25-1.838.25-2.088 1.125z" transform="translate(117 286.333) rotate(-16 616.744 -123.46)"/>
                            <g>
                                <path fill="#FFF" d="M1.962 0.459L4.676 3.21 6.764 5.336 3.925 6.003 0.251 6.836z" transform="translate(117 286.333) rotate(-16 616.744 -123.46) translate(96.449 28.346)"/>
                                <path fill="#FE5244" d="M6.973 5.377c-.042.167-.126.25-.21.25L.252 7.128c-.084 0-.167 0-.21-.083C0 6.96 0 6.878 0 6.795L1.712.459c.042-.084.083-.167.167-.209.083-.042.167-.042.209.042l4.801 4.877c.084 0 .125.083.084.208zM.585 6.461L6.22 5.17 2.088.959.585 6.46z" transform="translate(117 286.333) rotate(-16 616.744 -123.46) translate(96.449 28.346)"/>
                            </g>
                            <g>
                                <path fill="#F0E1D4" d="M1.336 0.292L3.424 2.418 0.585 3.085z" transform="translate(117 286.333) rotate(-16 616.744 -123.46) translate(99.789 31.264)"/>
                                <path fill="#FE5244" d="M3.632 2.46c-.041.166-.125.25-.208.25l-2.84.666c-.083 0-.166 0-.208-.083-.042-.083-.042-.167-.042-.25L1.086.292c.041-.084.083-.167.167-.209.083-.041.167-.041.208.042L3.55 2.251c.083 0 .125.083.083.208z" transform="translate(117 286.333) rotate(-16 616.744 -123.46) translate(99.789 31.264)"/>
                            </g>
                        </g>
                        <path fill="#FE5244" d="M55.667 31.589c0 .248 0 .538-.041.786l-6.68 53.836c-2.665.29-5.41.456-8.28.456l3.28-55.451c.204-3.106 2.745-5.55 5.86-5.55 3.279 0 5.86 2.692 5.86 5.923z" transform="translate(117 286.333)"/>
                    </g>
                </g>
                <g mask="url(#1509g9qoyb)">
                    <g fill-rule="nonzero">
                        <path fill="#FFF" stroke="#F9AE1B" stroke-width="5" d="M167.996 11.517v114.507c0 22.426-18.217 40.643-40.643 40.643H.388c22.425 0 40.642-18.162 40.642-40.643V11.517h126.966z" transform="translate(317.5 74.5)"/>
                        <path fill="#FE5244" d="M99.114 0.443H109.358V24.862000000000002H99.114z" transform="translate(317.5 74.5)"/>
                        <g fill="#FFCF2D">
                            <path d="M72.924 9.635c-1.44 0-2.88-.554-4.042-1.606l-4.264-3.765c-1.329-1.163-3.1-1.163-4.43 0l-4.042 3.599c-2.38 2.104-5.703 2.104-8.14 0l-3.71-3.267c-1.328-1.163-3.1-1.163-4.429 0L36.434 7.64c-2.38 2.104-5.703 2.104-8.14 0L25.472 5.15c-1.33-1.163-3.101-1.163-4.43 0l-3.045 2.713c-2.381 2.104-5.704 2.104-8.14 0L7.032 5.37c-1.329-1.163-3.1-1.163-4.43 0-.553.498-1.44.443-1.938-.11-.498-.554-.443-1.44.111-1.939 2.381-2.104 5.703-2.104 8.14 0l2.824 2.492c1.329 1.163 3.1 1.163 4.43 0l3.045-2.713c2.38-2.104 5.703-2.104 8.14 0l2.823 2.491c1.33 1.163 3.101 1.163 4.43 0l3.433-3.045c2.38-2.104 5.703-2.104 8.14 0l3.71 3.267c1.328 1.163 3.1 1.163 4.429 0l4.042-3.6c2.381-2.103 5.703-2.103 8.14 0l4.263 3.766c1.329 1.163 3.1 1.163 4.43 0l4.43-3.931c2.38-2.104 5.703-2.104 8.139 0 .554.498.61 1.384.11 1.938-.498.553-1.384.609-1.937.11-1.33-1.162-3.101-1.162-4.43 0l-4.43 3.932c-1.328 1.052-2.713 1.606-4.152 1.606zM72.6 28.33c-1.439 0-2.879-.553-4.041-1.605l-4.264-3.765c-1.329-1.163-3.1-1.163-4.43 0l-4.042 3.599c-2.38 2.104-5.703 2.104-8.14 0l-3.71-3.267c-1.328-1.163-3.1-1.163-4.429 0l-3.433 3.045c-2.38 2.104-5.703 2.104-8.14 0l-2.823-2.491c-1.33-1.163-3.101-1.163-4.43 0l-3.045 2.713c-2.381 2.104-5.703 2.104-8.14 0L6.71 24.067c-1.329-1.163-3.1-1.163-4.43 0-.553.498-1.44.443-1.937-.11-.499-.554-.443-1.44.11-1.939 2.381-2.104 5.704-2.104 8.14 0l2.824 2.492c1.329 1.163 3.1 1.163 4.43 0l3.045-2.713c2.38-2.104 5.703-2.104 8.14 0l2.823 2.491c1.33 1.163 3.101 1.163 4.43 0l3.433-3.045c2.381-2.104 5.703-2.104 8.14 0l3.71 3.267c1.328 1.163 3.1 1.163 4.43 0l4.041-3.6c2.381-2.103 5.703-2.103 8.14 0l4.263 3.766c1.33 1.163 3.101 1.163 4.43 0l4.43-3.931c2.38-2.104 5.703-2.104 8.14 0 .553.498.608 1.384.11 1.938-.498.553-1.384.609-1.938.11-1.329-1.162-3.1-1.162-4.43 0l-4.43 3.932c-1.328 1.052-2.713 1.606-4.152 1.606z" transform="translate(317.5 74.5) translate(58.14 45.404)"/>
                        </g>
                    </g>
                </g>
                <g fill="#F9AE1B" fill-rule="nonzero" mask="url(#1509g9qoyb)">
                    <g>
                        <path d="M11.511 15.674v-2.693h-7.89V9.625h6.73v-2.61h-6.73v-3.15h7.621V1.172H.287v14.502h11.224zm12.094-8.556V4.59h-9.857v2.528h9.857zm0 5.138V9.728h-9.857v2.528h9.857zm6.13 3.418V7.16l4.246 6.982h1.511l4.266-7.168.021 8.701h3.148l-.041-14.502H40.13l-5.343 9.012-5.425-9.012h-2.775v14.502h3.147zm23.567.249c1.256 0 2.395-.221 3.417-.663 1.022-.442 1.878-1.084 2.568-1.927l-2.154-1.989c-.98 1.147-2.195 1.72-3.644 1.72-.898 0-1.699-.197-2.403-.59-.704-.394-1.253-.943-1.646-1.648-.394-.704-.59-1.505-.59-2.403 0-.898.196-1.699.59-2.403.393-.705.942-1.254 1.646-1.647.704-.394 1.505-.591 2.403-.591 1.45 0 2.664.566 3.644 1.699l2.154-1.989c-.69-.829-1.543-1.464-2.558-1.906-1.014-.442-2.15-.663-3.406-.663-1.491 0-2.834.321-4.028.963-1.194.643-2.133 1.533-2.816 2.673-.684 1.14-1.026 2.427-1.026 3.864 0 1.436.342 2.724 1.026 3.864.683 1.14 1.622 2.03 2.816 2.673 1.194.642 2.53.963 4.007.963zM67.745 14.211v-1.668h-3.756l2.009-1.921c.574-.54.96-1.02 1.16-1.441.2-.422.3-.873.3-1.353 0-.53-.135-.992-.406-1.384-.27-.392-.649-.695-1.135-.91-.487-.215-1.055-.323-1.703-.323-.774 0-1.46.146-2.06.437-.598.29-1.068.693-1.41 1.207l1.473.96c.208-.295.466-.516.774-.663.308-.148.653-.221 1.035-.221.458 0 .805.094 1.042.284.237.19.356.461.356.815 0 .245-.062.491-.187.74-.125.248-.366.545-.724.89l-3.369 3.224v1.327h6.6z" transform="rotate(-19 723.964 -1031.444)"/>
                    </g>
                </g>
                <g mask="url(#1509g9qoyb)">
                    <g>
                        <path fill="#F9AE1B" fill-rule="nonzero" d="M19.488 33.921c1.632 0 2.908-.324 3.828-.972.92-.648 1.38-1.524 1.38-2.628 0-.816-.216-1.456-.648-1.92-.432-.464-.952-.792-1.56-.984-.608-.192-1.416-.384-2.424-.576-.816-.144-1.456-.284-1.92-.42-.464-.136-.852-.348-1.164-.636-.312-.288-.468-.672-.468-1.152 0-.624.276-1.128.828-1.512.552-.384 1.372-.576 2.46-.576 1.44 0 2.68.36 3.72 1.08l.744-1.368c-.528-.352-1.2-.636-2.016-.852-.816-.216-1.632-.324-2.448-.324-1.568 0-2.792.336-3.672 1.008-.88.672-1.32 1.536-1.32 2.592 0 .848.22 1.512.66 1.992.44.48.972.82 1.596 1.02.624.2 1.448.396 2.472.588.768.128 1.384.26 1.848.396.464.136.848.336 1.152.6.304.264.456.628.456 1.092 0 .656-.276 1.164-.828 1.524-.552.36-1.404.54-2.556.54-.864 0-1.696-.132-2.496-.396s-1.464-.604-1.992-1.02l-.768 1.344c.528.448 1.26.82 2.196 1.116.936.296 1.916.444 2.94.444zm9.216-15.504c.352 0 .648-.12.888-.36s.36-.536.36-.888c0-.32-.12-.596-.36-.828-.24-.232-.536-.348-.888-.348s-.648.12-.888.36-.36.52-.36.84c0 .336.12.624.36.864s.536.36.888.36zm.84 15.384V21.177H27.84v12.624h1.704zm6.456 0v-6.624c0-1.424.396-2.54 1.188-3.348.792-.808 1.868-1.212 3.228-1.212 1.216 0 2.152.344 2.808 1.032.656.688.984 1.688.984 3v7.152h1.704v-7.32c0-1.76-.468-3.1-1.404-4.02-.936-.92-2.196-1.38-3.78-1.38-1.088 0-2.044.212-2.868.636-.824.424-1.468 1.02-1.932 1.788v-2.328h-1.632v12.624H36z" transform="rotate(-19 799.198 -1119.959) rotate(28 30.132 24.957)"/>
                        <path stroke="#F9AE1B" stroke-linecap="round" stroke-linejoin="round" stroke-width="2" d="M0.348 3.512L1.688 31.017 14.528 0.547 60.247 28.071" transform="rotate(-19 799.198 -1119.959)"/>
                    </g>
                </g>
                <g mask="url(#1509g9qoyb)">
                    <g fill-rule="nonzero">
                        <g>
                            <path fill="#F9AE1B" d="M1.088 89.658c-.335 0-.67-.222-.781-.556-.14-.444.083-.916.502-1.054l2.621-.916c.446-.14.92.083 1.06.5.14.443-.084.915-.502 1.054l-2.622.916c-.111.028-.195.056-.278.056zm6.581-2.276c-.335 0-.67-.223-.78-.556-.14-.444.083-.916.501-1.054l2.622-.916c.446-.14.92.083 1.06.5.139.443-.084.915-.503 1.054l-2.621.916c-.084.028-.195.056-.279.056zm6.581-2.304c-.334 0-.669-.222-.78-.556-.14-.444.083-.916.502-1.054l2.621-.916c.446-.14.92.083 1.06.5.14.443-.084.915-.502 1.054l-2.622.916c-.083.056-.195.056-.279.056zm6.582-2.277c-.335 0-.67-.222-.781-.555-.14-.444.084-.916.502-1.054l2.621-.916c.447-.14.92.083 1.06.5.14.443-.084.915-.502 1.054l-2.621.916c-.084.055-.168.055-.28.055zm6.581-2.276c-.334 0-.67-.222-.78-.555-.14-.444.083-.916.501-1.055L29.756 78c.446-.138.92.084 1.06.5.139.444-.084.916-.502 1.055l-2.622.916c-.084.055-.167.055-.279.055zm6.61-2.276c-.335 0-.67-.222-.781-.555-.14-.444.083-.916.502-1.055l2.621-.916c.446-.139.92.084 1.06.5.14.444-.084.916-.502 1.055l-2.622.916c-.111.055-.195.055-.278.055zm6.58-2.276c-.334 0-.668-.222-.78-.555-.14-.444.084-.916.502-1.055l2.621-.916c.447-.139.92.083 1.06.5.14.444-.083.916-.502 1.055l-2.621.916c-.112.027-.195.055-.28.055zm6.582-2.276c-.334 0-.669-.222-.78-.555-.14-.444.083-.916.501-1.055l2.622-.916c.446-.139.92.083 1.06.5.139.444-.084.916-.502 1.054l-2.622.916c-.111.028-.195.056-.279.056zm6.582-2.276c-.335 0-.67-.222-.781-.555-.14-.444.084-.916.502-1.055l2.621-.916c.446-.139.92.083 1.06.5.14.444-.084.915-.502 1.054l-2.621.916c-.084.028-.196.056-.28.056zm6.581-2.276c-.334 0-.67-.222-.78-.556-.14-.444.083-.916.501-1.054l2.622-.916c.446-.14.92.083 1.06.5.139.443-.084.915-.503 1.054l-2.621.916c-.084.028-.195.056-.279.056zm6.582-2.276c-.335 0-.67-.223-.781-.556-.14-.444.083-.916.502-1.054l2.621-.916c.446-.14.92.083 1.06.5.14.443-.084.915-.502 1.054l-2.622.916c-.083.028-.195.056-.278.056zm6.581-2.304c-.335 0-.67-.222-.78-.556-.14-.444.083-.916.501-1.054l2.622-.916c.446-.14.92.083 1.06.5.139.443-.084.915-.503 1.054l-2.621.916c-.084.056-.167.056-.279.056zm6.581-2.277c-.334 0-.669-.222-.78-.555-.14-.444.083-.916.502-1.054l2.62-.916c.447-.14.921.083 1.06.5.14.443-.083.915-.501 1.054l-2.622.916c-.083.055-.167.055-.279.055zm6.61-2.276c-.335 0-.67-.222-.781-.555-.14-.444.084-.916.502-1.055l2.621-.916c.446-.138.92.084 1.06.5.14.444-.084.916-.502 1.055l-2.621.916c-.112.055-.196.055-.28.055zm6.581-2.276c-.335 0-.67-.222-.78-.555-.14-.444.083-.916.501-1.055l2.622-.916c.446-.139.92.084 1.06.5.139.444-.084.916-.503 1.055l-2.621.916c-.112.055-.195.055-.279.055zm6.582-2.276c-.335 0-.67-.222-.781-.555-.14-.444.083-.916.502-1.055l2.621-.916c.446-.139.92.083 1.06.5.14.444-.084.916-.502 1.055l-2.622.916c-.111.055-.195.055-.278.055zm6.58-2.276c-.334 0-.668-.222-.78-.555-.14-.444.084-.916.502-1.055l2.621-.916c.447-.139.92.083 1.06.5.14.444-.083.916-.502 1.054l-2.621.916c-.084.028-.195.056-.28.056zm6.582-2.276c-.334 0-.669-.222-.78-.555-.14-.444.083-.916.501-1.055l2.622-.916c.446-.139.92.083 1.06.5.139.444-.084.915-.502 1.054l-2.622.916c-.083.028-.195.056-.279.056z" transform="rotate(14 -331.011 294.676) translate(20.664 24.27)"/>
                            <path fill="#3FA9F5" d="M30.76 89.658c-.474 0-.837-.361-.837-.833 0-7.522-2.342-12.99-7-16.21-3.486-2.416-7.027-2.638-7.055-2.638-.474-.027-.809-.416-.781-.888.028-.472.418-.805.865-.777.167 0 3.987.222 7.864 2.887 6.442 4.441 7.78 12.047 7.78 17.626 0 .444-.362.833-.836.833z" transform="rotate(14 -331.011 294.676) translate(20.664 24.27)"/>
                            <path fill="#3FA9F5" d="M164.005 89.658H1.088c-.307 0-.614-.167-.753-.472-.14-.278-.112-.61.083-.86L66.623.471c.14-.194.362-.305.585-.333.224-.028.475.055.642.222l96.741 87.853c.251.222.335.583.223.916-.14.306-.446.528-.809.528zM2.761 87.992h159.097l-94.454-85.8-64.643 85.8z" transform="rotate(14 -331.011 294.676) translate(20.664 24.27)"/>
                        </g>
                        <g fill="#F9AE1B">
                            <path d="M7.275 13.928c-3.94 0-7.137-3.119-7.137-6.964S3.334 0 7.275 0c3.94 0 7.137 3.12 7.137 6.964 0 3.845-3.196 6.964-7.137 6.964zm0-12.342c-3.031 0-5.484 2.394-5.484 5.351 0 2.958 2.453 5.351 5.484 5.351s5.484-2.393 5.484-5.35c0-2.958-2.453-5.352-5.484-5.352z" transform="rotate(14 -331.011 294.676) translate(.32 105.624)"/>
                            <path d="M12.759 6.964H14.412V13.121H12.759z" transform="rotate(14 -331.011 294.676) translate(.32 105.624)"/>
                        </g>
                        <g fill="#F9AE1B">
                            <path d="M7.44 18.924c-3.94 0-7.137-3.326-7.137-7.427 0-4.1 3.197-7.426 7.137-7.426 3.94 0 7.137 3.326 7.137 7.426 0 4.072-3.196 7.427-7.137 7.427zm0-13.16c-3.03 0-5.483 2.55-5.483 5.705 0 3.154 2.452 5.734 5.483 5.734 3.032 0 5.484-2.552 5.484-5.706 0-3.153-2.452-5.734-5.484-5.734z" transform="rotate(14 -331.011 294.676) translate(86.121 .828)"/>
                            <path d="M0.248 0H1.901V18.035H0.248z" transform="rotate(14 -331.011 294.676) translate(86.121 .828)"/>
                        </g>
                        <path fill="#F9AE1B" d="M197.83 119.499c-3.865 0-7-3.135-7-7s3.135-7 7-7v1.622c-2.973 0-5.378 2.405-5.378 5.378 0 2.973 2.405 5.378 5.378 5.378v1.622z" transform="rotate(14 -331.011 294.676)"/>
                    </g>
                </g>
                <g fill="#FFF" fill-rule="nonzero" mask="url(#1509g9qoyb)">
                    <g>
                        <path d="M50 5c.002-1.909-1.293-3.575-3.144-4.043-1.85-.469-3.783.38-4.69 2.06-4.358-.225-10.641 2.55-17.166 7.408-6.533-4.858-12.817-7.642-17.175-7.417-.85-1.561-2.6-2.41-4.353-2.114C1.72 1.19.347 2.566.056 4.32c-.291 1.755.563 3.5 2.127 4.347-.233 4.358 2.55 10.641 7.4 17.166-4.85 6.534-7.633 12.817-7.408 17.175-1.561.851-2.41 2.6-2.115 4.353.296 1.753 1.673 3.126 3.427 3.417 1.754.29 3.5-.564 4.346-2.128.167.017.334.017.5.017 4.334 0 10.384-2.75 16.667-7.425 6.283 4.675 12.333 7.433 16.667 7.425.166 0 .333 0 .5-.017.848 1.563 2.595 2.415 4.35 2.121 1.753-.293 3.127-1.668 3.42-3.422.294-1.753-.558-3.5-2.12-4.349.233-4.358-2.55-10.642-7.4-17.167 4.85-6.533 7.633-12.816 7.408-17.175C49.165 7.93 50.001 6.526 50 5zm-46.425.592c-.153-.16-.24-.371-.242-.592.004-.22.09-.432.242-.592.334-.308.85-.308 1.183 0 .323.329.323.855 0 1.184l-.125.1c-.046.031-.097.056-.15.075-.047.024-.097.04-.15.05-.055.01-.11.015-.166.016-.053-.001-.106-.007-.159-.016-.055-.008-.108-.025-.158-.05-.053-.019-.104-.044-.15-.075l-.125-.1zm.25 3.558c.108.008.225.017.342.017 2.3 0 4.166-1.866 4.166-4.167 0-.117-.008-.233-.016-.342 3.841-.025 9.45 2.542 15.3 6.825-4.819 3.796-9.171 8.149-12.967 12.967C6.367 18.6 3.8 12.992 3.825 9.15zm.933 38.108l-.125.1c-.046.032-.097.057-.15.075-.047.024-.097.041-.15.05-.055.01-.11.016-.166.017-.053-.001-.106-.007-.159-.017-.055-.007-.108-.024-.158-.05-.053-.018-.104-.043-.15-.075l-.125-.1c-.153-.159-.24-.37-.242-.591.004-.22.09-.432.242-.592.334-.308.85-.308 1.183 0 .323.329.323.855 0 1.183zm3.559-.25c.008-.108.016-.225.016-.341 0-2.302-1.865-4.167-4.166-4.167-.117 0-.234.008-.342.017-.025-3.842 2.533-9.442 6.817-15.292 1.9 2.403 3.94 4.693 6.108 6.858 2.166 2.168 4.459 4.205 6.867 6.1-5.85 4.284-11.459 6.85-15.3 6.826zM17.933 32.9c-2.23-2.218-4.316-4.579-6.241-7.067C15.56 20.864 20.03 16.394 25 12.525c2.488 1.926 4.848 4.01 7.067 6.242 2.23 2.218 4.316 4.578 6.241 7.066-1.925 2.488-4.01 4.849-6.241 7.067-2.219 2.231-4.58 4.316-7.067 6.242-2.488-1.926-4.848-4.011-7.067-6.242zm28.734 13.767c-.004.22-.09.432-.242.591l-.125.1c-.046.032-.097.057-.15.075-.047.024-.098.041-.15.05-.055.01-.11.016-.167.017-.053-.001-.106-.007-.158-.017-.055-.007-.109-.024-.158-.05-.053-.018-.104-.043-.15-.075l-.125-.1c-.154-.159-.24-.37-.242-.591 0-.46.373-.834.833-.834.46 0 .834.373.834.834zm-.492-4.15c-.108-.009-.225-.017-.342-.017-2.3 0-4.166 1.865-4.166 4.167 0 .116.008.233.016.342-3.841.024-9.45-2.542-15.3-6.826 2.408-1.895 4.701-3.932 6.867-6.1 2.168-2.166 4.205-4.459 6.1-6.866 4.283 5.85 6.85 11.458 6.825 15.3zm-6.817-18.075c-1.9-2.403-3.94-4.693-6.108-6.859-2.166-2.167-4.459-4.204-6.867-6.1 5.85-4.283 11.459-6.85 15.3-6.825-.008.109-.016.225-.016.342 0 2.301 1.865 4.167 4.166 4.167.117 0 .234-.009.342-.017.025 3.842-2.533 9.442-6.817 15.292zm7.067-18.85l-.125.1c-.046.031-.097.056-.15.075-.047.024-.098.04-.15.05-.055.01-.11.015-.167.016-.053-.001-.106-.007-.158-.016-.055-.008-.109-.025-.158-.05-.053-.019-.104-.044-.15-.075l-.125-.1c-.154-.16-.24-.371-.242-.592.002-.376.256-.704.62-.8.363-.097.746.062.935.388.188.325.135.737-.13 1.004z" transform="rotate(-33 614.651 -248.23)"/>
                        <path d="M25 18.333c-4.142 0-7.5 3.358-7.5 7.5 0 4.142 3.358 7.5 7.5 7.5 4.142 0 7.5-3.358 7.5-7.5-.006-4.14-3.36-7.493-7.5-7.5zm2.942 10.442c-1.051 1.051-2.583 1.461-4.019 1.077-1.435-.385-2.557-1.506-2.941-2.942-.385-1.436.025-2.967 1.076-4.018.331-.283.824-.264 1.132.043.307.308.326.801.043 1.132-.47.468-.733 1.103-.733 1.766s.264 1.299.733 1.767c.988.946 2.546.946 3.534 0 .47-.468.733-1.104.733-1.767 0-.663-.264-1.298-.733-1.766-.283-.331-.264-.824.043-1.132.308-.307.801-.326 1.132-.043.784.778 1.225 1.837 1.225 2.941 0 1.105-.441 2.164-1.225 2.942z" transform="rotate(-33 614.651 -248.23)"/>
                    </g>
                </g>
                <path fill="#FFF" fill-rule="nonzero" d="M361.128 273.144c1.664 0 3.164-.368 4.5-1.104 1.336-.736 2.388-1.756 3.156-3.06.768-1.304 1.152-2.764 1.152-4.38s-.384-3.076-1.152-4.38c-.768-1.304-1.82-2.324-3.156-3.06-1.336-.736-2.836-1.104-4.5-1.104-1.664 0-3.172.372-4.524 1.116-1.352.744-2.408 1.764-3.168 3.06-.76 1.296-1.14 2.752-1.14 4.368 0 1.616.38 3.072 1.14 4.368.76 1.296 1.816 2.316 3.168 3.06 1.352.744 2.86 1.116 4.524 1.116zm0-1.584c-1.328 0-2.532-.3-3.612-.9-1.08-.6-1.928-1.432-2.544-2.496-.616-1.064-.924-2.252-.924-3.564 0-1.312.308-2.5.924-3.564.616-1.064 1.464-1.896 2.544-2.496 1.08-.6 2.284-.9 3.612-.9 1.328 0 2.528.3 3.6.9 1.072.6 1.912 1.432 2.52 2.496.608 1.064.912 2.252.912 3.564 0 1.312-.304 2.5-.912 3.564-.608 1.064-1.448 1.896-2.52 2.496-1.072.6-2.272.9-3.6.9zm16.416 1.44v-.768h-4.62l2.856-2.808c.536-.52.9-.98 1.092-1.38.192-.4.288-.816.288-1.248 0-.704-.25-1.258-.75-1.662-.5-.404-1.178-.606-2.034-.606-.64 0-1.214.104-1.722.312-.508.208-.926.504-1.254.888l.612.528c.544-.624 1.308-.936 2.292-.936.632 0 1.118.138 1.458.414.34.276.51.662.51 1.158 0 .32-.078.638-.234.954-.156.316-.454.69-.894 1.122l-3.492 3.42V273h5.892z" mask="url(#1509g9qoyb)" transform="rotate(-20 364.92 264.6)"/>
                <path fill="#FFF" fill-rule="nonzero" d="M409.985 311.618v-7.752h10.512v7.752h1.752v-16.8h-1.752v7.488h-10.512v-7.488h-1.776v16.8h1.776zm21.36 0v-.768h-4.62l2.856-2.808c.536-.52.9-.98 1.092-1.38.192-.4.288-.816.288-1.248 0-.704-.25-1.258-.75-1.662-.5-.404-1.178-.606-2.034-.606-.64 0-1.214.104-1.722.312-.508.208-.926.504-1.254.888l.612.528c.544-.624 1.308-.936 2.292-.936.632 0 1.118.138 1.458.414.34.276.51.662.51 1.158 0 .32-.078.638-.234.954-.156.316-.454.69-.894 1.122l-3.492 3.42v.612h5.892zm10.536.144c1.664 0 3.164-.368 4.5-1.104 1.336-.736 2.388-1.756 3.156-3.06.768-1.304 1.152-2.764 1.152-4.38s-.384-3.076-1.152-4.38c-.768-1.304-1.82-2.324-3.156-3.06-1.336-.736-2.836-1.104-4.5-1.104-1.664 0-3.172.372-4.524 1.116-1.352.744-2.408 1.764-3.168 3.06-.76 1.296-1.14 2.752-1.14 4.368 0 1.616.38 3.072 1.14 4.368.76 1.296 1.816 2.316 3.168 3.06 1.352.744 2.86 1.116 4.524 1.116zm0-1.584c-1.328 0-2.532-.3-3.612-.9-1.08-.6-1.928-1.432-2.544-2.496-.616-1.064-.924-2.252-.924-3.564 0-1.312.308-2.5.924-3.564.616-1.064 1.464-1.896 2.544-2.496 1.08-.6 2.284-.9 3.612-.9 1.328 0 2.528.3 3.6.9 1.072.6 1.912 1.432 2.52 2.496.608 1.064.912 2.252.912 3.564 0 1.312-.304 2.5-.912 3.564-.608 1.064-1.448 1.896-2.52 2.496-1.072.6-2.272.9-3.6.9z" mask="url(#1509g9qoyb)" transform="rotate(17 429.449 303.218)"/>
                <g mask="url(#1509g9qoyb)">
                    <g>
                        <path fill="#0072AE" d="M103.63 118.871c8.204-3.488 12.82-8.79 14.434-16.39 1.613-7.6 2.176-24.34 3.563-31.213 1.387-6.872 2.334-12.125 2.334-19.16.08-3.309-.65-10.363 0-13.365.393-2.232-2.224-5.42-6.33-4.686-4.108.734-8.575 6.791-8.575 16.987 0 10.196-1.704 12.881-3.801 14.779-1.676 1.835-12.166.25-17.35-11.593-5.184-11.844-5.465-11.43-8.009-24.995C77.352 15.671 70.434 0 64.91 0c-5.525 0-8.668 4.968-5.655 12.908 3.013 7.94 5.114 17.985 5.845 24.796 1.165 7.604 2.162 14.806.986 15.666-2.357.895-5.114-9.623-8.197-13.782-3.082-4.158-15.554-26.052-18.302-29.702-2.748-3.65-7.484-4.728-11.448-1.552-3.963 3.176-.22 8.508 2.17 11.928 2.39 3.42 9.183 17.142 11.224 21.886 2.042 4.744 4.435 8.897 5.978 11.505.43.932 3.711 5.873 2.4 5.873-1.31 0-6.108-5.843-8.762-8.482-2.654-2.639-7.177-7.65-10.093-10.496-2.917-2.844-7.075-9.547-10.598-11.78-3.523-2.231-7.558-2.164-10.295 2.053-2.737 4.217 5.284 12.907 6.98 14.718 1.695 1.81 7.278 9.963 9.85 13.187 2.571 3.223 12.223 14.066 14.156 16.002 1.933 1.936 2.313 3.264 1.157 3.264-1.157 0-5.425-1.483-10.127-3.641-4.703-2.159-11.862-6.124-16.717-9.032-4.854-2.908-10.39-5.56-13.877-3.025-3.316 3.139-1.403 9.388 5.5 13.384 6.902 3.996 17.6 10.257 23.223 13.018 5.624 2.76 9.955 6.084 15.189 13.785 5.233 7.701 11.805 17.196 18.42 21.465 6.616 4.268 13.71 9.041 18.85 6.192 5.138-2.849 12.66-7.78 20.863-11.267z" transform="translate(190 17)"/>
                        <path fill="#FFF" fill-rule="nonzero" d="M48.414 102c.41 0 .72-.29.982-.835.999-2.136 1.064-7.083 1.064-9.766 0-2.73-.13-5.444-.13-8.175v-.562l.49-.016c1.146-.064 2.309-.129 3.455-.16 1.473-.049 3.553-.274 3.553-2.153C57.828 79 56.648 79 55.6 79c-.72 0-1.44 0-2.161.08l-10.052.98c-.704.064-1.392.16-2.063.37-.18.048-.393.112-.622.112-1.245 0-1.703.273-1.703 1.461 0 1.044 1.015 1.59 2.194 1.59.54 0 1.08-.048 1.62-.128 1.294-.177 2.604-.337 3.913-.45l.704-.08-.163.787c-.328 1.43-.459 2.907-.459 4.385 0 1.863.131 3.726.131 5.59 0 1.621-.065 3.244-.065 4.882v.225c.007 1.125.102 3.196 1.539 3.196zm17.669 0c1.165 0 2.346-.372 3.416-1.003 3.448-2.022 5.363-5.984 5.363-10.48 0-3.624-1.788-11.517-6.497-11.517-1.835 0-3.447 1.165-4.198 3.138l-.095.275-.256.048c-3.959 1.003-5.092 6.47-5.092 9.98 0 4.254 2.634 9.559 7.359 9.559zm-.952-3.538c-2.605 0-5.51-3.521-5.51-6.23 0-3.36 1.319-4.715 2.805-5.607.668-.398 1.37-.7 2.004-1.1.567-.381 1.002-.812 1.269-1.449l.067-.19.183-.097c.451-.254.969-.366 1.47-.366 3.105 0 3.857 4.206 3.857 6.356 0 3.76-1.804 8.683-6.145 8.683zM90.79 97.25c0-2.853-2.425-4.49-5.285-5.949-1.406-.713-2.813-1.345-3.88-2.042-1.034-.68-1.987-1.572-1.987-2.885 0-.292.21-.746.34-.989 1.308-2.334 6.416-2.885 8.856-2.885.404 0 .808.032 1.212.032.647 0 .954-.372.954-1.118C91 79.421 88.689 79 87.137 79c-3.297 0-8.47 1.815-10.457 4.846-.533.795-.792 1.67-.792 2.675 0 4.263 4.752 6.435 8.097 7.812.372.146.906.357 1.423.6.856.405 1.972 1.037 1.972 2.14 0 1.945-3.976 2.236-5.27 2.236-.872 0-1.777-.097-2.65-.356-.97-.292-1.47-.746-2.134-1.475-.08-.081-.145-.162-.21-.227-.129-.13-.21-.21-.404-.21-.468 0-.953.923-.953 1.863 0 2.871 4.242 3.088 6.377 3.096h.136c3.055 0 8.518-.713 8.518-4.75zm16.138 0c0-2.853-2.425-4.49-5.285-5.949-1.407-.713-2.813-1.345-3.88-2.042-1.034-.68-1.987-1.572-1.987-2.885 0-.292.21-.746.339-.989 1.31-2.334 6.417-2.885 8.857-2.885.404 0 .808.032 1.212.032.647 0 .954-.372.954-1.118 0-1.994-2.311-2.415-3.863-2.415-3.297 0-8.47 1.815-10.457 4.846-.534.795-.792 1.67-.792 2.675 0 4.263 4.752 6.435 8.097 7.812.372.146.905.357 1.423.6.856.405 1.971 1.037 1.971 2.14 0 1.945-3.976 2.236-5.269 2.236-.872 0-1.777-.097-2.65-.356-.97-.292-1.471-.746-2.134-1.475-.08-.081-.145-.162-.21-.227-.13-.13-.21-.21-.404-.21-.469 0-.953.923-.953 1.863 0 2.871 4.242 3.088 6.377 3.096h.136c3.055 0 8.518-.713 8.518-4.75zm8.367-1.443c.302 0 .557-.181.733-.527.43-.805.43-2.138.43-3.042 0-1.332.016-3.043.207-4.375.255-2.121.335-4.341.335-6.48 0-1.496-.255-2.384-1.243-2.384-.415 0-.733.148-.957.477-.972 1.398-1.386 7.993-1.386 10.328v.215c.012 1.513.17 5.788 1.88 5.788zM115.27 102c.983 0 1.729-.938 1.729-2.123 0-1.097-.655-2.3-1.911-2.3-.929 0-1.675 1.008-1.675 2.158 0 1.239.8 2.265 1.857 2.265z" transform="translate(190 17)"/>
                        <g fill-rule="nonzero">
                            <path fill="#0072AE" d="M6.86 9.027c.474 0 .607-.353.607-1.086 0-.213-.01-.417-.01-.63l-.01-.325.285-.019c.37-.018 1.715-.111 1.715-.5 0-.4-1.317-.52-1.601-.53l-.322-.018.038-.353c.056-.593.113-1.187.18-1.772l.038-.352.303.056c.256.055.52.092.777.092.246 0 .853-.111.853-.436 0-.176-.484-.306-.635-.352-.123-.028-.247-.047-.332-.065-.218-.056-.436-.093-.663-.14l-.228-.046-.01-.269C7.818 1.753 7.8 1.225 7.8.687c0-.334-.237-.613-.522-.613h-.104c-.218.158-.37.297-.455.501-.17.427-.275.928-.322 1.42l-.028.324-.294-.027c-.578-.065-1.166-.103-1.744-.14l-.37-.018.096-.4c.066-.296.113-.62.113-.908 0-.409-.246-.696-.587-.696-.275 0-.332.167-.427.399-.085.232-.142.473-.19.65-.056.231-.132.454-.189.686l-.056.241-.218.01c-.304.009-.711.018-1.11.064-.226.019-1.136.12-1.136.455 0 .454 1.62.538 1.933.538l.341.01-.047.37c-.076.585-.124 1.178-.152 1.772l-.01.334-.303-.018c-.36-.019-.796-.121-1.137-.121-.237 0-.881.093-.881.408 0 .065.019.12.152.195.34.176 1.487.38 1.914.445l.237.047.01.278c.009.418.056 1.66.681 1.66.597 0 .683-.955.702-1.382l.009-.343.313.028c.54.046 1.08.083 1.62.102l.265.01.02.305c.018.26.056.51.104.77.113.64.34.984.833.984zm-.947-3.164l-.265-.009c-.531-.01-1.052-.037-1.583-.065l-.294-.018.01-.334c.028-.631.047-1.262.095-1.893l.028-.315 2.312.102-.047.37c-.076.622-.152 1.244-.218 1.865l-.038.297zm9.551 7.59c.237 0 .417-.168.569-.483.578-1.234.616-4.092.616-5.64 0-1.578-.076-3.146-.076-4.723v-.325l.284-.01c.664-.036 1.336-.073 2-.092.852-.028 2.056-.158 2.056-1.243 0-.77-.682-.77-1.289-.77-.417 0-.834 0-1.25.046L12.554.78c-.407.037-.805.093-1.194.214-.104.028-.227.065-.36.065-.72 0-.985.157-.985.844 0 .603.587.918 1.27.918.312 0 .625-.028.938-.074.748-.102 1.506-.195 2.264-.26l.408-.046-.095.455c-.19.825-.265 1.679-.265 2.532 0 1.076.076 2.153.076 3.229 0 .937-.038 1.874-.038 2.82 0 .603 0 1.976.89 1.976zm10.12.036c.692 0 1.393-.213 2.028-.575 2.047-1.16 3.184-3.433 3.184-6.012 0-2.078-1.061-6.605-3.857-6.605-1.09 0-2.046.668-2.492 1.8l-.057.157-.151.028c-2.35.575-3.023 3.711-3.023 5.724 0 2.44 1.564 5.483 4.368 5.483zm.275-2.022c-1.478 0-3.127-2.05-3.127-3.628 0-1.957.749-2.746 1.592-3.265.38-.232.777-.408 1.137-.64.322-.223.569-.474.72-.845l.038-.111.105-.056c.255-.148.55-.213.833-.213 1.763 0 2.19 2.45 2.19 3.702 0 2.19-1.024 5.056-3.488 5.056zm9.05 1.93c1.79 0 4.993-.409 4.993-2.719 0-1.633-1.421-2.57-3.098-3.405-.825-.408-1.65-.77-2.275-1.169-.606-.39-1.165-.9-1.165-1.65 0-.168.123-.428.199-.567.767-1.336 3.762-1.651 5.193-1.651.237 0 .473.018.71.018.38 0 .56-.213.56-.64 0-1.14-1.356-1.382-2.265-1.382-1.933 0-4.966 1.039-6.131 2.774-.313.454-.464.955-.464 1.53 0 2.44 2.785 3.684 4.747 4.472.218.084.53.204.834.344.502.231 1.156.593 1.156 1.224 0 1.113-2.331 1.28-3.09 1.28-.51 0-1.042-.055-1.553-.204-.569-.167-.863-.426-1.251-.844-.047-.046-.085-.093-.123-.13-.076-.074-.123-.12-.237-.12-.275 0-.56.528-.56 1.067 0 1.679 2.597 1.771 3.82 1.771zm9.75-.075c1.336 0 3.6-1.011 3.6-2.477 0-.464-.141-.64-.52-.64-.209 0-.408.056-.616.158-.218.102-.436.241-.664.38-.473.306-1.051.631-1.857.631-.701 0-2.141-.52-2.35-1.633l-.076-.436.389.037c.256.019.502.065.758.065 1.961 0 4.624-1.076 4.624-3.423 0-1.225-1.44-1.772-2.596-1.772-.701 0-1.384.167-2.01.52-1.553.853-3.012 2.792-3.012 4.74 0 2.227 2.17 3.85 4.33 3.85zM43.437 7.98c-.133 0-.304-.01-.474-.186l-.142-.148.057-.205c.028-.11.085-.194.142-.26.502-.63 1.876-1.41 2.681-1.41.294 0 .635.103.635.455 0 .371-.464.91-.748 1.095-.503.315-1.573.659-2.151.659zm7.339 5.417c.483 0 .587-1.048.597-1.373l.095-2.198c.038-.705.16-1.689.758-2.283.511-.52 2-1.567 2.615-1.567.085 0 .17.027.246.055l.076.019c.256 0 .521-.39.521-.863 0-.63-.464-1.16-1.118-1.16-1.127 0-2.236 1.058-3.174 1.976l-.645.622.152-.937c.019-.083.029-.158.029-.241 0-.214-.275-.473-.616-.473-.2 0-.36.037-.493.13-.455.306-.464 1.818-.464 2.328 0 1.53.151 3.052.312 4.565.029.25.067.5.133.742.142.51.455.658.976.658zm8.552.019c1.43 0 2.502-1.206 3.335-2.588l.37-.594.161.696c.142.556.389 1.308.701 1.549.095.074.19.102.341.102.673 0 1.128-.371 1.128-1.048 0-.26-.066-.52-.161-.807-.095-.307-.218-.613-.284-.928-.294-1.29-.484-2.626-.626-3.943-.028-.26-.066-.612-.113-.965-.048-.352-.105-.65-.18-.826-.133-.352-.38-.538-.702-.538-.578 0-.88.436-.88 1.142 0 .055.009.102.018.157.057.39.085.77.085 1.16 0 1.586-.34 3.609-1.601 4.713-.38.334-1.07.64-1.592.64-.35 0-.597-.12-.824-.464-.503-.78-.54-2.208-.54-2.997 0-.621.037-1.233.037-1.855 0-.334.076-.668.076-1.002 0-.575-.19-.863-.597-.863-.19 0-.312.028-.398.093-.076.065-.19.26-.293.64-.304 1.048-.436 2.626-.436 3.693 0 .714.075 1.419.256 2.096.322 1.271 1.222 2.737 2.719 2.737z" transform="translate(190 17) translate(10 134)"/>
                            <path fill="#F9AE1B" d="M70.325 13.396c1.79 0 4.994-.408 4.994-2.718 0-1.633-1.422-2.57-3.099-3.405-.824-.408-1.649-.77-2.274-1.169-.607-.39-1.166-.9-1.166-1.65 0-.168.124-.428.2-.567.767-1.336 3.761-1.651 5.192-1.651.237 0 .474.018.71.018.38 0 .56-.213.56-.64 0-1.14-1.355-1.382-2.265-1.382-1.933 0-4.965 1.039-6.13 2.774-.313.454-.465.955-.465 1.53 0 2.44 2.786 3.684 4.747 4.472.218.084.531.204.834.344.502.231 1.156.593 1.156 1.224 0 1.113-2.33 1.28-3.089 1.28-.512 0-1.042-.055-1.554-.204-.568-.167-.862-.426-1.25-.844-.048-.046-.086-.093-.124-.13-.076-.074-.123-.12-.237-.12-.275 0-.559.528-.559 1.067 0 1.679 2.597 1.771 3.819 1.771zm9.12.019c1.11 0 3.469-.881 4.407-1.614.464-.371.796-.798.796-1.345 0-.427-.19-.678-.521-.678-.323 0-.645.112-.976.288-.342.176-.673.408-.976.612-.891.594-1.848.863-2.872.863-.691 0-1.753-.213-1.753-1.512 0-2.041 2.919-3.516 4.17-3.795l.388-.083-.038.445c0 .056-.01.112-.01.167 0 .288.38.622.759.622.72 0 1.25-.882 1.25-1.79 0-.799-.51-1.29-1.25-1.29-.635 0-1.308.195-1.943.426-2.255.808-4.766 2.477-4.766 5.26 0 1.903 1.289 3.424 3.336 3.424zm6.6.037c.105 0 .238-.046.36-.139.228-.176.484-.622.73-1.206.247-.575.455-1.188.616-1.568.408-.983 1.412-2.792 2.511-3.2.029-.01.162-.047.19-.047.72 0 1.033 2.162 1.1 2.644.047.334.084.668.122.993.029.24.048.5.095.751.076.548.227 1.271.929 1.271.578 0 .89-.538.89-1.29 0-.75-.113-1.502-.274-2.254-.398-1.902-1.128-4.267-2.881-4.267-1.298 0-2.331 1.14-3.127 2.384l-.569.881.029-1.094c.038-1.364.123-2.737.246-4.101L87.25.687c0-.056.02-.121.038-.177l-.01-.065V.417c-.056-.24-.35-.417-.71-.417-.246 0-.426.13-.578.39-.54.955-.673 2.653-.749 3.748-.142 2.18-.17 4.379-.17 6.577 0 .548.01 1.104.076 1.652.066.584.445 1.085.9 1.085zm11.116-.056c.673 0 1.345-.12 1.914-.463 1.383-.817 2.15-2.542 2.15-4.314 0-2.162-1.6-4.444-3.97-4.444-.786 0-2.056.408-2.255 1.085-.028.112-.057.27-.057.4 0 .092.01.194.02.296l.018.13-.066.111c-.606 1.011-1.014 2.18-1.014 3.386 0 1.457.569 2.793 1.706 3.452.464.269 1.004.361 1.554.361zm.227-1.753c-1.222 0-1.99-1.039-1.99-2.338 0-1.039.389-1.818.929-2.542.076-.093.142-.185.208-.287l.076-.102.123-.019c.237-.037.484-.056.73-.056 1.004 0 2.445.334 2.445 2.06 0 1.345-1.128 3.284-2.52 3.284zm7.4 1.753c.673 0 1.346-.12 1.915-.463 1.383-.817 2.15-2.542 2.15-4.314 0-2.162-1.6-4.444-3.97-4.444-.786 0-2.056.408-2.255 1.085-.028.112-.057.27-.057.4 0 .092.01.194.02.296l.018.13-.066.111c-.606 1.011-1.014 2.18-1.014 3.386 0 1.457.569 2.793 1.706 3.452.464.269 1.004.361 1.554.361zm.228-1.753c-1.222 0-1.99-1.039-1.99-2.338 0-1.039.389-1.818.929-2.542.076-.093.142-.185.208-.287l.076-.102.123-.019c.237-.037.484-.056.73-.056 1.004 0 2.445.334 2.445 2.06 0 1.345-1.128 3.284-2.52 3.284zm5.77 1.753c.531 0 .901-.603.901-1.308 0-.083-.01-.167-.028-.25-.095-.64-.162-1.28-.228-1.92-.294-2.802-.559-5.595-.692-8.406-.019-.343-.047-.64-.142-.9-.085-.25-.303-.399-.568-.399-.285 0-.37.019-.512.195-.275.343-.36 1.15-.36 1.754 0 2.013.208 4.026.322 6.03.048.659.076 1.429.133 2.19.047.742.132 1.474.265 2.087.133.556.455.927.91.927zm3.611 4.583c.521 0 .872-.528.872-1.196 0-.195-.038-.371-.085-.566-.057-.214-.124-.427-.18-.65-.228-1.048-.266-2.096-.38-3.154l-.037-.269.227-.093c2.132-.853 4.596-2.254 4.596-4.917 0-1.178-.512-2.226-1.412-2.83-.54-.37-1.194-.5-1.848-.5-.872 0-1.687.343-2.464.853l-.274.176-.143-.315c-.142-.325-.331-.492-.578-.492-.35 0-.634.297-.634.66 0 .89.094 1.771.218 2.652.132.9.284 1.79.407 2.682l.047.352-.312.037c-.351.037-.427.14-.427.529 0 .566.256.89.749 1.206l.132.084.02.167c.056.621.142 1.65.265 2.653.132 1.02.303 1.93.52 2.366.171.361.418.565.721.565zm-.161-7.709l-.038-.39c-.076-.705-.142-1.41-.237-2.115-.019-.13-.057-.269-.076-.408-.028-.158-.056-.325-.066-.482v-.158l.095-.112c.616-.64 1.563-1.28 2.492-1.28.758 0 1.573.52 1.573 1.596 0 1.753-1.924 2.765-3.411 3.238l-.332.111zm7.666 3.238c1.488 0 2.729-1.253 3.8-2.514l.35-.409.152.548c.303 1.132.53 1.837 1.487 1.837.484 0 .692-.27.692-.845 0-.825-.208-1.623-.208-2.449 0-.705.066-1.4.16-2.096.039-.344.067-.678.115-1.012.037-.315.104-.63.104-.955 0-.38-.294-.659-.71-.659-.18 0-.37.074-.55.195l-.19.14-.17-.186c-.465-.51-.939-.724-1.602-.724-2.587 0-5.62 3.767-5.62 6.17 0 1.586.797 2.959 2.19 2.959zm0-1.559c-.427 0-.597-.78-.597-1.085 0-.575.237-1.123.455-1.54.625-1.206 2.397-3.433 3.904-3.433.511 0 .938.186.938.76 0 1.485-2.227 3.712-3.051 4.389-.38.315-1.137.91-1.65.91zm14.507 1.429c.597 0 .957-.213.957-.696 0-.111-.01-.195-.038-.287-.34-1.262-.616-2.542-.871-3.823-.143-.677-.19-1.354-.256-2.04-.142-1.374-.285-2.747-.465-4.11-.028-.27-.066-.631-.113-.984-.048-.353-.105-.668-.18-.854-.124-.324-.323-.491-.607-.491-.483 0-.616.297-.616.992 0 1.077.029 2.153.104 3.22l.02.352-.313.01c-.995.027-1.99.25-2.815.816-1.487 1.03-2.359 2.765-2.359 4.731 0 1.735.701 3.127 2.246 3.127 1.43 0 2.615-1.076 3.449-2.412l.388-.631.152.751c.066.344.104.696.18 1.04.17.797.493 1.289 1.137 1.289zm-5.268-2.245c-.597 0-.74-.696-.74-1.16 0-1.698 1.536-3.776 3.156-3.776.18 0 .35.019.521.019l.228.01.056.24c.038.195.048.38.048.576 0 1.93-1.365 4.09-3.27 4.09z" transform="translate(190 17) translate(10 134)"/>
                        </g>
                    </g>
                </g>
            </g>
        </g>
    </g>
</svg>
