<svg xmlns="http://www.w3.org/2000/svg" width="16" height="16" viewBox="0 0 16 16">
    <g fill="none" fill-rule="evenodd">
        <g fill="#3FA9F5" fill-rule="nonzero">
            <g>
                <g>
                    <path d="M15 0H1C.448 0 0 .448 0 1v14c0 .552.448 1 1 1h14c.552 0 1-.448 1-1V1c0-.552-.448-1-1-1zm-2.41 6.923l-3.765 3.764c-.456.454-1.192.454-1.648 0L3.41 6.923c-.21-.21-.293-.517-.216-.805.077-.287.302-.512.59-.589.287-.077.594.005.804.216l3.293 3.293c.065.065.17.065.236 0l3.293-3.293c.21-.21.517-.293.805-.216.287.077.512.302.589.59.077.287-.005.594-.216.804z" transform="translate(-1344 -28) translate(1172 25) translate(172 3)"/>
                </g>
            </g>
        </g>
    </g>
</svg>
