<svg xmlns="http://www.w3.org/2000/svg" width="20" height="20" viewBox="0 0 20 20">
    <g fill="none" fill-rule="evenodd">
        <g fill="#3FA9F5" fill-rule="nonzero">
            <g>
                <g>
                    <path d="M18.125 20c-.345 0-.625-.28-.625-.625 0-2.506-1.233-4.813-3.312-6.216l-3.805 2.96c-.108.084-.245.131-.383.131s-.274-.047-.384-.132L5.81 13.16C3.733 14.562 2.5 16.87 2.5 19.375c0 .345-.28.625-.625.625s-.625-.28-.625-.625c0-3.04 1.62-5.908 4.23-7.49.03-.022.065-.042.1-.057 1.34-.787 2.867-1.203 4.42-1.203s3.08.416 4.42 1.203c.034.016.068.035.098.057 2.61 1.58 4.231 4.45 4.231 7.49.001.345-.279.625-.624.625zM10 14.833l2.998-2.33c-.947-.417-1.953-.627-2.998-.627-1.045 0-2.05.21-2.997.627L10 14.832zM10 10c-2.757 0-5-2.243-5-5V1.25H2.5v5.625c0 .345-.28.625-.625.625s-.625-.28-.625-.625V1.25H.625C.28 1.25 0 .97 0 .625S.28 0 .625 0h18.75c.345 0 .625.28.625.625s-.28.625-.625.625H15V5c0 2.757-2.243 5-5 5zM6.25 5c0 2.067 1.683 3.75 3.75 3.75 2.068 0 3.75-1.683 3.75-3.75h-7.5zm7.5-1.25v-2.5h-7.5v2.5h7.5z" transform="translate(-468.000000, -26.000000) translate(452.000000, 16.000000) translate(16.000000, 10.000000)"/>
                </g>
            </g>
        </g>
    </g>
</svg>
