<svg width="66" height="66" xmlns="http://www.w3.org/2000/svg">
    <g transform="translate(1 1)" fill="none" fill-rule="evenodd">
        <circle stroke="#D7D7D7" fill="#FFF" cx="32" cy="32" r="32"/>
        <g fill="#3FA9F5" fill-rule="nonzero">
            <path d="M23 43.995c-1.655 0-3-1.346-3-3v-22c0-1.655 1.345-3 3-3h22c1.655 0 3 1.345 3 3v22c0 1.654-1.345 3-3 3H23zm0-26a1 1 0 0 0-1 1v22a1 1 0 0 0 1 1h22a1 1 0 0 0 1-1v-22a1 1 0 0 0-1-1H23z"/>
            <path d="M19 47.995c-1.655 0-3-1.346-3-3v-24a1 1 0 0 1 2 0v24a1 1 0 0 0 1 1h24a1 1 0 0 1 0 2H19zM27 25.995a1 1 0 0 1 0-2h14a1 1 0 0 1 0 2H27z"/>
            <path d="M27 29.995a1 1 0 0 1 0-2h14a1 1 0 0 1 0 2H27zM27 33.995a1 1 0 0 1 0-2h10a1 1 0 0 1 0 2H27z"/>
        </g>
    </g>
</svg>
