<svg xmlns="http://www.w3.org/2000/svg" width="116" height="116" viewBox="0 0 116 116">
    <g fill="none" fill-rule="evenodd">
        <g>
            <g>
                <g transform="translate(-1040 -1647) translate(80 1551) translate(960 96)">
                    <circle cx="58" cy="58" r="58" fill="#3FA9F5"/>
                    <g fill="#FFF" fill-rule="nonzero" transform="translate(26 26)">
                        <path d="M4.864 64c-2.688 0-4.872-2.184-4.875-4.867V4.87C-.008 2.184 2.18 0 4.864 0h40.253c1.31 0 2.526.501 3.443 1.41.925.918 1.437 2.14 1.443 3.438v14.368c0 1.104-.896 2-2 2s-2-.896-2-2V4.869c0-.237-.091-.45-.259-.618-.168-.163-.381-.251-.616-.251H4.864c-.237 0-.45.088-.619.256-.165.165-.256.379-.256.616v54.259c0 .477.392.869.872.869h31.63c1.104 0 2 .896 2 2s-.896 2-2 2H4.864z"/>
                        <path d="M19.21 19c-1.103 0-2-.896-2-2s.897-2 2-2h17.217c1.104 0 2 .896 2 2s-.896 2-2 2H19.21z"/>
                        <circle cx="10.147" cy="17" r="3"/>
                        <circle cx="10.147" cy="27.296" r="3"/>
                        <path d="M46.003 64c-.774 0-1.486-.45-1.811-1.152L40.045 54H34c-2.144 0-4.09-1.144-5.155-2.941l-3.288 2.032c-.266.165-.57.264-.882.29l-9.598.83c-.053.005-.114.008-.173.008-.69 0-1.344-.366-1.707-.955-.397-.65-.394-1.456.008-2.104l5.096-8.168c.163-.261.387-.485.651-.645l2.99-1.832.61-4.288c.341-2.406 1.672-4.598 3.645-6.014l4.923-3.517c1.285-.917 2.797-1.403 4.37-1.403 1.16 0 2.323.275 3.366.795l3.152 1.576c.157.077.315.163.48.256l3.376-2.07c.99-.607 2.128-.927 3.285-.927 2.219 0 4.23 1.125 5.387 3.008.88 1.434 1.147 3.128.755 4.765-.392 1.637-1.4 3.024-2.838 3.904l-1.976 1.21 13.208 21.126c.283.453.374.99.254 1.51s-.438.962-.888 1.245c-.315.197-.683.304-1.059.304-.693 0-1.328-.352-1.696-.942L47.069 39.9l-3.421 2.096H44c1.104 0 2 .896 2 2s-.896 2-2 2H34c-1.104 0-2 .896-2 2s.896 2 2 2h7.312c.773 0 1.483.45 1.81 1.149l4.689 10c.469 1 .037 2.192-.963 2.661-.264.131-.552.195-.845.195zM18.72 49.883l5.139-.446 4.266-2.637c.56-2.77 3.006-4.803 5.878-4.803h1.989l14.376-8.808c.523-.32.89-.826 1.035-1.426.144-.6.048-1.219-.275-1.742-.421-.688-1.157-1.098-1.97-1.098-.422 0-.838.117-1.2.338L21.45 45.507l-2.731 4.376zm16.773-20.59c-.736 0-1.442.227-2.045.656l-4.92 3.515c-1.09.781-1.824 1.995-2.016 3.328l-.144 1.008 12.115-7.427-1.416-.709c-.486-.243-1.03-.37-1.574-.37z"/>
                    </g>
                </g>
            </g>
        </g>
    </g>
</svg>
