<svg width="40" height="40" xmlns="http://www.w3.org/2000/svg">
    <path d="M20 .15C9.013.15.082 9.013 0 20a19.567 19.567 0 0 0 3.567 11.283l-2.25 6.667a.833.833 0 0 0 .2.85.85.85 0 0 0 .85.217l7-2.217A20 20 0 0 0 40 20C39.918 9.013 30.987.15 20 .15zm12 27.867a6.517 6.517 0 0 1-5.833 3.483 17.85 17.85 0 0 1-5.75-1.667 23.333 23.333 0 0 1-9.917-8.6c-3.183-4.216-3.333-8.166-.267-11.433a3.617 3.617 0 0 1 3.1-.933 2.567 2.567 0 0 1 2.017 1.45l.633 1.533 1.05 2.517a1.833 1.833 0 0 1 0 1.666 8.567 8.567 0 0 1-1.666 2.284A20.683 20.683 0 0 0 18.35 21.9a15.1 15.1 0 0 0 4.55 2.717c.467-.6 1.383-1.667 1.667-2.117a1.667 1.667 0 0 1 2.233-.6c.633.233 4.183 1.967 4.183 1.967.451.153.846.437 1.134.816A3.333 3.333 0 0 1 32 28.017z" fill="#FFF" fill-rule="nonzero"/>
</svg>
