<svg xmlns="http://www.w3.org/2000/svg" width="20" height="20" viewBox="0 0 20 20">
    <g fill="none" fill-rule="evenodd">
        <g fill="#3FA9F5" fill-rule="nonzero">
            <g>
                <g>
                    <g>
                        <path d="M4.375 17.497c-1.034 0-1.875-.841-1.875-1.875V1.872c0-1.035.84-1.875 1.875-1.875h13.75c1.034 0 1.875.84 1.875 1.875v13.75c0 1.034-.84 1.875-1.875 1.875H4.375zm0-16.25c-.345 0-.625.28-.625.625v13.75c0 .345.28.625.625.625h13.75c.345 0 .625-.28.625-.625V1.872c0-.345-.28-.625-.625-.625H4.375z" transform="translate(-630.000000, -26.000000) translate(452.000000, 16.000000) translate(162.000000, 0.000000) translate(16.000000, 10.000000)"/>
                        <path d="M1.875 19.997C.841 19.997 0 19.156 0 18.122v-15c0-.345.28-.625.625-.625s.625.28.625.625v15c0 .345.28.625.625.625h15c.345 0 .625.28.625.625s-.28.625-.625.625h-15zM6.875 6.247c-.345 0-.625-.28-.625-.625s.28-.625.625-.625h8.75c.345 0 .625.28.625.625s-.28.625-.625.625h-8.75z" transform="translate(-630.000000, -26.000000) translate(452.000000, 16.000000) translate(162.000000, 0.000000) translate(16.000000, 10.000000)"/>
                        <path d="M6.875 8.747c-.345 0-.625-.28-.625-.625s.28-.625.625-.625h8.75c.345 0 .625.28.625.625s-.28.625-.625.625h-8.75zM6.875 11.247c-.345 0-.625-.28-.625-.625s.28-.625.625-.625h6.25c.345 0 .625.28.625.625s-.28.625-.625.625h-6.25z" transform="translate(-630.000000, -26.000000) translate(452.000000, 16.000000) translate(162.000000, 0.000000) translate(16.000000, 10.000000)"/>
                    </g>
                </g>
            </g>
        </g>
    </g>
</svg>
