<svg xmlns="http://www.w3.org/2000/svg" width="116" height="116" viewBox="0 0 116 116">
    <g fill="none" fill-rule="evenodd">
        <g>
            <g>
                <g transform="translate(-80 -1647) translate(80 1551) translate(0 96)">
                    <circle cx="58" cy="58" r="58" fill="#3FA9F5"/>
                    <g fill="#FFF" fill-rule="nonzero">
                        <path d="M1.997 64c-1.104 0-2-.896-2-2s.896-2 2-2h2v-8.667C3.997 49.496 5.493 48 7.331 48h7.336C16.504 48 18 49.496 18 51.333V60h5.997V27.333c0-1.837 1.496-3.333 3.334-3.333h7.336C36.504 24 38 25.496 38 27.333V60h6V39.333c0-1.834 1.493-3.33 3.328-3.333h7.339C56.504 36 58 37.496 58 39.333V60h1.997c1.104 0 2 .896 2 2s-.896 2-2 2h-58zM54 60V40h-6v20h6zm-20 0V28h-6.003v32H34zm-20 0v-8H7.997v8H14z" transform="translate(26 26)"/>
                        <path d="M5.997 34.003c-3.309 0-6-2.691-6-6 0-3.31 2.691-6 6-6 .358 0 .718.032 1.075.098l9.027-9.018c-.067-.36-.102-.72-.102-1.083 0-3.31 2.691-6 6-6 3.31 0 6 2.69 6 6v.075l9.123 2.44C38.237 12.947 40.043 12 42 12c.97 0 1.915.232 2.768.68l7.312-5.717C52.027 6.64 52 6.32 52 6c0-3.31 2.693-6 6-6s6 2.69 6 6-2.69 6-6 6c-1.472 0-2.87-.536-3.957-1.493l-6.539 5.112c.325.749.496 1.56.496 2.381 0 3.31-2.69 6-6 6-3.187 0-5.803-2.499-5.99-5.637l-9.413-2.518c-1.133 1.363-2.805 2.158-4.6 2.158-1.397 0-2.736-.488-3.8-1.363l-7.565 7.557c.877 1.067 1.365 2.406 1.365 3.806 0 3.309-2.69 6-6 6zm0-8c-1.104 0-2 .896-2 2s.896 2 2 2 2-.896 2-2-.896-2-2-2zM42 16c-1.101 0-2 .896-2 2s.896 2 2 2 2-.896 2-2-.896-2-2-2zm-20.003-5.997c-1.104 0-2 .896-2 2s.896 2 2 2 2-.896 2-2-.896-2-2-2zM58 4c-1.101 0-2 .896-2 2s.899 2 2 2 2-.896 2-2-.896-2-2-2z" transform="translate(26 26)"/>
                    </g>
                </g>
            </g>
        </g>
    </g>
</svg>
