<svg xmlns="http://www.w3.org/2000/svg" width="20" height="20" viewBox="0 0 20 20">
    <g fill="none" fill-rule="evenodd">
        <g fill="#3FA9F5" fill-rule="nonzero">
            <g>
                <g>
                    <g>
                        <path d="M3.125 10.375c-.167 0-.323-.065-.442-.182-.118-.119-.183-.276-.183-.443 0-.167.065-.324.183-.442L4.21 7.78c.27-.27.632-.42 1.015-.42.383 0 .743.15 1.014.42l.954.955c.034.034.08.053.13.053s.096-.019.13-.054l2.272-2.267c.27-.27.63-.42 1.014-.42s.744.15 1.014.42l1.743 1.742c.035.034.08.053.13.053s.097-.019.132-.054l2.677-2.653c.117-.117.273-.18.44-.18.168 0 .326.065.444.184.118.12.182.277.181.444 0 .166-.067.323-.185.44l-2.676 2.652c-.269.27-.628.417-1.011.417-.384 0-.745-.149-1.015-.419L10.87 7.351c-.035-.034-.08-.053-.13-.053s-.097.019-.13.054L8.337 9.619c-.27.27-.63.42-1.015.42-.384 0-.744-.15-1.014-.42l-.953-.956c-.034-.034-.08-.052-.13-.052s-.097.019-.132.054l-1.527 1.527c-.118.118-.275.183-.442.183z" transform="translate(-765.000000, -26.000000) translate(452.000000, 16.000000) translate(297.000000, 0.000000) translate(16.000000, 10.000000)"/>
                        <path d="M7.434 19.997c-.196 0-.382-.093-.5-.25-.207-.275-.15-.668.125-.875l2.316-1.737v-1.563H1.458C.654 15.572 0 14.918 0 14.114V2.657c0-.804.654-1.459 1.458-1.459h7.757V.625c0-.345.28-.625.625-.625s.625.28.625.625v.573h8.077c.804 0 1.458.655 1.458 1.459v11.458c0 .804-.654 1.458-1.458 1.458h-7.917v1.563l2.313 1.735c.276.207.332.599.125.875-.117.157-.304.25-.5.25-.136 0-.265-.043-.374-.124L10 18.229l-2.19 1.643c-.11.082-.24.125-.376.125zM1.458 2.448c-.115 0-.208.094-.208.209v11.458c0 .115.093.208.208.208h17.084c.115 0 .208-.093.208-.208V2.657c0-.115-.093-.209-.208-.209H1.458z" transform="translate(-765.000000, -26.000000) translate(452.000000, 16.000000) translate(297.000000, 0.000000) translate(16.000000, 10.000000)"/>
                    </g>
                </g>
            </g>
        </g>
    </g>
</svg>
