<svg xmlns="http://www.w3.org/2000/svg" width="116" height="116" viewBox="0 0 116 116">
    <g fill="none" fill-rule="evenodd">
        <g>
            <g>
                <g transform="translate(-720 -1647) translate(80 1551) translate(640 96)">
                    <circle cx="58" cy="58" r="58" fill="#3FA9F5"/>
                    <g fill="#FFF" fill-rule="nonzero">
                        <path d="M6 56c-3.307 0-6-2.69-6-6V6c0-3.31 2.693-6 6-6h28.344c1.603 0 3.107.624 4.24 1.755l7.659 7.658C47.376 10.547 48 12.053 48 13.656V26c0 1.104-.896 2-2 2s-2-.896-2-2V13.656c0-.525-.213-1.04-.584-1.413l-7.659-7.659C35.38 4.208 34.877 4 34.344 4H6c-1.101 0-2 .896-2 2v44c0 1.104.896 2 2 2h8c1.104 0 2 .896 2 2s-.896 2-2 2H6z" transform="translate(26 26)"/>
                        <path d="M44 64c-.187 0-.373-.027-.555-.077l-10-2.888c-.85-.248-1.445-1.038-1.445-1.923v-10.75l-4-1.245v6.216c0 1.104-.896 2-2 2s-2-.896-2-2V44.4c0-.17.024-.344.075-.525l.032-.11c.064-.189.141-.349.24-.493.018-.03.042-.059.066-.088.099-.125.195-.227.307-.317.021-.016.085-.07.107-.083.112-.085.253-.165.402-.23.027-.013.054-.023.078-.031l18.008-6.563c.221-.08.45-.12.685-.12.235 0 .464.04.685.12l18 6.56c.806.293 1.334 1.067 1.315 1.925-.021.862-.587 1.608-1.405 1.864L56 48.36v10.75c0 .885-.595 1.674-1.445 1.922l-10 2.888c-.182.053-.366.08-.555.08zm0-4.083l8-2.309v-8.003l-7.405 2.304c-.192.062-.392.091-.595.091-.203 0-.403-.03-.595-.09L36 49.604v8.003l8 2.31zm0-12.013l11.75-3.656L44 39.968l-11.75 4.28L44 47.904zM10 14c-1.101 0-2-.896-2-2s.896-2 2-2h4c1.104 0 2 .896 2 2s-.896 2-2 2h-4zM22 14c-1.101 0-2-.896-2-2s.896-2 2-2h12c1.104 0 2 .896 2 2s-.896 2-2 2H22zM10 24c-1.101 0-2-.896-2-2s.899-2 2-2h4c1.104 0 2 .896 2 2s-.896 2-2 2h-4zM22 24c-1.101 0-2-.896-2-2s.899-2 2-2h12c1.104 0 2 .896 2 2s-.896 2-2 2H22zM10 34c-1.101 0-2-.896-2-2s.896-2 2-2h4c1.104 0 2 .896 2 2s-.896 2-2 2h-4zM10 44c-1.101 0-2-.896-2-2s.899-2 2-2h4c1.104 0 2 .896 2 2s-.896 2-2 2h-4zM22 34c-1.104 0-2-.896-2-2s.896-2 2-2h12c1.104 0 2 .896 2 2s-.896 2-2 2H22z" transform="translate(26 26)"/>
                    </g>
                </g>
            </g>
        </g>
    </g>
</svg>
