<svg width="40" height="40" xmlns="http://www.w3.org/2000/svg">
    <g fill="#FFF" fill-rule="nonzero">
        <path d="M30.117 18.75a.417.417 0 0 0-.4.517 10 10 0 1 1-19.417 0 .417.417 0 0 0-.4-.517H.833a.833.833 0 0 0-.833.833v9.584C.01 35.146 4.854 39.99 10.833 40h18.334C35.146 39.99 39.99 35.146 40 29.167v-9.584a.833.833 0 0 0-.833-.833h-9.05zM39.167 16.25c.46 0 .833-.373.833-.833v-4.584C39.99 4.854 35.146.01 29.167 0h-9.584a.833.833 0 0 0-.833.833V7.5a1.25 1.25 0 0 1-2.5 0V.833A.833.833 0 0 0 15.417 0h-.834a.833.833 0 0 0-.833.833V7.5a1.25 1.25 0 0 1-2.5 0V.833A.833.833 0 0 0 10.383 0h-.916a.833.833 0 0 0-.717.833V7.5a1.25 1.25 0 1 1-2.5 0V1.667a.417.417 0 0 0-.617-.317A10.833 10.833 0 0 0 0 10.833v4.584c0 .46.373.833.833.833h10.334a.833.833 0 0 0 .683-.35 10 10 0 0 1 16.317 0c.157.22.412.351.683.35h10.317zm-10-8.75c0-.92.746-1.667 1.666-1.667H32.5c.92 0 1.667.747 1.667 1.667v1.667c0 .92-.747 1.666-1.667 1.666h-1.667c-.92 0-1.666-.746-1.666-1.666V7.5z"/>
        <circle cx="20" cy="21.667" r="5"/>
    </g>
</svg>
