<svg xmlns="http://www.w3.org/2000/svg" width="116" height="116" viewBox="0 0 116 116">
    <g fill="none" fill-rule="evenodd">
        <g>
            <g>
                <g transform="translate(-400 -1647) translate(80 1551) translate(320 96)">
                    <circle cx="58" cy="58" r="58" fill="#3FA9F5"/>
                    <g fill="#FFF" fill-rule="nonzero">
                        <path d="M21.333 64c-1.104 0-2-.896-2-2v-6h-2c-5.514 0-10-4.485-10-10v-6H4.267c-.496-.003-.976-.09-1.43-.267-2.061-.792-3.093-3.112-2.304-5.17.574-1.491 1.128-2.963 1.675-4.414l.027-.072c2.97-7.898 5.778-15.36 10.133-20.845.381-.477.952-.752 1.565-.752.448 0 .891.155 1.243.432.864.688 1.01 1.95.325 2.81-3.965 4.993-6.664 12.169-9.522 19.766l-.038.101C5.395 33.04 4.84 34.515 4.267 36h5.066c1.104 0 2 .896 2 2v8c0 3.31 2.691 6 6 6h4c1.104 0 2 .896 2 2v8c0 1.104-.896 2-2 2zM49.333 64.003c-1.104 0-2-.896-2-2V45.296c0-.555.235-1.09.64-1.467 3.462-3.205 5.827-7.333 6.838-11.944.197-.909 1.018-1.57 1.949-1.57.147 0 .293.016.437.048 1.075.237 1.758 1.304 1.52 2.381-1.122 5.112-3.672 9.739-7.386 13.405v15.854c.002 1.104-.894 2-1.998 2zM55.333 18.003c-1.104 0-2-.896-2-2v-4h-4c-1.104 0-2-.896-2-2s.896-2 2-2h4v-4c0-1.104.896-2 2-2s2 .896 2 2v4h4c1.104 0 2 .896 2 2s-.896 2-2 2h-4v4c0 1.104-.896 2-2 2zM33.333 28.003c-1.104 0-2-.896-2-2s.896-2 2-2h14c1.104 0 2 .896 2 2s-.896 2-2 2h-14zM40.256 22c-1.507-.04-2.741-1.184-2.899-2.693l-.002-.035c-.014-.096-.022-.179-.022-.264v-.005c0-1.523 1.136-2.792 2.651-2.971.115-.021.232-.03.35-.03.117 0 .234.011.349.03 1.429.168 2.525 1.312 2.634 2.747.011.08.016.149.016.221 0 .032-.002.08-.008.123-.026.754-.333 1.464-.864 1.997-.565.568-1.317.883-2.117.885h-.003c-.026-.002-.056-.005-.085-.005zM40.336 36.003c-1.653 0-2.997-1.342-3.003-2.99v-.008c-.002-1.541 1.155-2.821 2.696-2.978h.016c.11-.016.195-.024.283-.024h.005c1.622 0 2.958 1.309 2.998 2.928l.002.112c-.008.786-.317 1.522-.872 2.08-.562.568-1.317.882-2.117.885h-.003c0-.005-.005-.005-.005-.005zM25.333 12.003c-.533 0-1.037-.208-1.413-.587l-2-2c-.379-.376-.587-.88-.587-1.413 0-.534.208-1.038.587-1.414.379-.378.88-.586 1.413-.586.312 0 .614.072.888.205l1.174-4.69C25.619.626 26.416.002 27.336.002h11.997c1.104 0 2 .896 2 2s-.896 2-2 2H28.896l-1.621 6.485c-.174.696-.712 1.25-1.406 1.443-.176.048-.354.072-.536.072z" transform="translate(26 26)"/>
                    </g>
                </g>
            </g>
        </g>
    </g>
</svg>
