<svg xmlns="http://www.w3.org/2000/svg" width="16" height="16" viewBox="0 0 16 16">
    <g fill="none" fill-rule="evenodd">
        <g fill="#FFF" fill-rule="nonzero">
            <g>
                <g>
                    <g>
                        <path d="M16 8c0-4.418-3.582-8-8-8S0 3.582 0 8s3.582 8 8 8c2.122 0 4.157-.843 5.657-2.343S16 10.122 16 8zM4.333 10.333c-.368 0-.666-.298-.666-.666V6.138c0-.135.081-.256.206-.308.124-.052.268-.023.363.073l1.51 1.509c.065.066.155.1.248.097.092-.003.18-.045.24-.116L7.747 5.63c.063-.074.156-.117.253-.117s.19.043.253.117L9.781 7.41c.058.067.14.109.229.115.089.007.176-.023.243-.081l1.861-1.628c.098-.086.238-.106.356-.053.12.054.196.172.197.303v3.6c0 .368-.299.666-.667.666H4.333z" transform="translate(-1264 -41) translate(1192 10) translate(64 27) translate(8 4)"/>
                    </g>
                </g>
            </g>
        </g>
    </g>
</svg>
